<?xml version="1.0" standalone="no"?>
<!DOCTYPE svg PUBLIC "-//W3C//DTD SVG 20010904//EN"
 "http://www.w3.org/TR/2001/REC-SVG-20010904/DTD/svg10.dtd">
<svg version="1.0" xmlns="http://www.w3.org/2000/svg"
 width="277.000000pt" height="276.000000pt" viewBox="0 0 277.000000 276.000000"
 preserveAspectRatio="xMidYMid meet">

<g transform="translate(0.000000,276.000000) scale(0.100000,-0.100000)"
fill="#191919" stroke="none">
<path d="M713 2048 c-359 -359 -653 -660 -653 -668 0 -16 1299 -1320 1315
-1320 16 0 1315 1304 1315 1320 0 16 -1299 1320 -1314 1320 -6 0 -304 -294
-663 -652z m694 -20 c13 -21 73 -161 73 -171 0 -5 -13 -25 -30 -44 -29 -33
-30 -37 -30 -133 0 -114 6 -120 73 -74 34 23 37 29 32 55 -6 27 -4 31 41 50
35 16 61 20 103 17 68 -5 108 -31 165 -111 66 -91 135 -122 173 -77 23 26 40
25 54 -2 21 -41 52 -68 86 -74 18 -3 33 -12 33 -19 0 -24 -57 -38 -127 -32
l-65 6 -117 -111 c-238 -230 -393 -384 -403 -401 -13 -24 5 -45 58 -67 42 -18
84 -65 84 -94 0 -23 -19 -20 -96 14 -37 17 -74 28 -81 26 -9 -4 -13 -26 -13
-73 0 -73 -10 -99 -33 -90 -17 6 -27 50 -27 118 0 59 -7 61 -92 19 -33 -17
-66 -30 -73 -30 -48 0 -7 74 61 110 86 46 87 43 -76 203 -80 78 -198 192 -261
254 l-116 112 -80 -2 c-63 -1 -86 3 -108 17 -27 18 -28 19 -10 32 10 8 26 14
36 14 21 0 69 37 69 54 0 7 6 21 14 31 13 18 15 18 47 -9 56 -47 103 -22 202
107 56 74 159 100 242 61 34 -16 40 -24 43 -54 2 -29 10 -39 42 -58 21 -12 44
-22 49 -22 7 0 11 37 11 101 0 99 -1 102 -30 136 -35 39 -35 38 16 148 35 75
46 86 61 63z"/>
<path d="M1050 1538 c-11 -12 -24 -36 -29 -53 -7 -29 -9 -30 -58 -27 -52 4
-123 -18 -123 -38 0 -10 135 -144 387 -383 50 -48 96 -87 102 -87 8 0 11 60
11 188 0 227 -14 287 -86 358 -64 64 -164 85 -204 42z"/>
<path d="M1607 1550 c-53 -16 -98 -61 -131 -129 l-31 -66 -3 -202 c-2 -141 0
-203 7 -203 22 0 501 454 501 475 0 19 -62 37 -128 39 -52 1 -56 3 -63 30 -17
62 -69 81 -152 56z"/>
<path d="M2740 1379 c0 -5 5 -7 10 -4 6 3 10 8 10 11 0 2 -4 4 -10 4 -5 0 -10
-5 -10 -11z"/>
</g>
</svg>
