<?xml version="1.0" standalone="no"?>
<!DOCTYPE svg PUBLIC "-//W3C//DTD SVG 20010904//EN"
 "http://www.w3.org/TR/2001/REC-SVG-20010904/DTD/svg10.dtd">
<svg version="1.0" xmlns="http://www.w3.org/2000/svg"
 width="274.000000pt" height="273.000000pt" viewBox="0 0 274.000000 273.000000"
 preserveAspectRatio="xMidYMid meet">

<g transform="translate(0.000000,273.000000) scale(0.100000,-0.100000)"
fill="#191919" stroke="none">
<path d="M707 2022 c-356 -356 -647 -654 -647 -662 0 -16 1289 -1310 1305
-1310 16 0 1305 1294 1305 1310 0 16 -1289 1310 -1305 1310 -6 0 -301 -291
-658 -648z m517 -44 c22 -34 75 -201 87 -278 14 -81 24 -102 39 -80 5 8 10 27
10 41 0 62 107 339 131 339 7 0 9 -8 5 -22 -36 -124 -66 -466 -42 -469 6 0 26
37 46 83 20 46 55 116 79 155 46 78 115 162 125 152 3 -3 -12 -41 -33 -85 -50
-103 -85 -207 -111 -335 -28 -136 -24 -161 15 -90 56 99 104 167 159 221 30
29 62 57 71 62 37 21 32 -1 -15 -64 -27 -36 -50 -70 -50 -75 0 -5 52 -60 115
-123 86 -86 115 -121 113 -137 -3 -22 -543 -584 -581 -604 -18 -10 -52 21
-318 287 -195 195 -299 306 -299 319 0 13 41 61 105 125 58 58 105 111 105
118 0 8 -18 36 -40 62 -58 69 -54 88 10 49 72 -44 143 -115 198 -198 67 -101
76 -91 38 40 -37 129 -72 214 -132 327 -31 57 -53 107 -50 110 14 13 151 -143
215 -245 32 -51 51 -66 51 -40 0 25 -56 291 -76 360 -8 24 13 21 30 -5z"/>
<path d="M1686 1408 c-8 -18 -20 -53 -27 -78 -10 -32 -36 -68 -93 -130 -140
-149 -186 -191 -205 -180 -9 5 -68 62 -132 127 -102 103 -121 128 -154 201
-21 45 -43 82 -49 82 -6 0 -42 -31 -80 -69 -49 -49 -67 -74 -64 -90 3 -22 474
-501 493 -501 12 0 505 492 505 504 0 14 -153 166 -167 166 -8 0 -20 -15 -27
-32z"/>
</g>
</svg>
