<?xml version="1.0" standalone="no"?>
<!DOCTYPE svg PUBLIC "-//W3C//DTD SVG 20010904//EN"
 "http://www.w3.org/TR/2001/REC-SVG-20010904/DTD/svg10.dtd">
<svg version="1.0" xmlns="http://www.w3.org/2000/svg"
 width="273.000000pt" height="273.000000pt" viewBox="0 0 273.000000 273.000000"
 preserveAspectRatio="xMidYMid meet">

<g transform="translate(0.000000,273.000000) scale(0.100000,-0.100000)"
fill="#191919" stroke="none">
<path d="M705 2030 c-360 -360 -655 -659 -655 -665 0 -16 1294 -1305 1310
-1305 16 0 1310 1289 1310 1305 0 6 -295 305 -655 665 l-655 655 -655 -655z
m610 -7 c-15 -55 -9 -89 26 -147 54 -91 70 -126 78 -170 l7 -41 19 30 c29 43
27 137 -4 191 -25 45 -25 81 2 98 23 15 47 -1 69 -45 25 -48 44 -44 40 9 -5
89 55 20 66 -75 7 -67 -14 -128 -88 -252 -78 -130 -98 -193 -81 -242 19 -55
15 -63 -20 -42 -46 27 -96 102 -114 169 -18 69 -19 100 -4 160 10 37 9 48 -5
69 -35 53 -83 16 -72 -56 15 -93 -63 -9 -83 90 -23 108 19 203 114 262 44 28
59 25 50 -8z m-480 -477 c11 -16 22 -22 36 -19 46 12 70 -55 49 -142 -7 -29
-10 -64 -7 -77 8 -31 207 -198 236 -198 30 0 26 27 -13 85 -18 28 -36 60 -40
73 -10 31 1 72 19 72 15 0 201 -201 217 -234 7 -16 -9 -74 -67 -246 -74 -218
-88 -251 -101 -238 -3 4 -15 53 -26 109 -19 103 -20 104 -87 184 -166 198
-224 271 -231 291 -5 12 -21 93 -35 181 -15 87 -29 161 -31 165 -2 3 3 13 12
22 19 19 46 8 69 -28z m1167 23 c4 -12 -19 -160 -46 -301 -13 -67 -21 -85 -67
-140 -236 -289 -238 -292 -254 -359 -8 -35 -15 -78 -15 -95 0 -37 -22 -61 -37
-42 -12 17 -153 438 -153 459 0 16 179 226 207 242 21 13 33 -2 33 -42 0 -28
-11 -54 -42 -100 -36 -53 -39 -64 -27 -76 18 -19 31 -11 154 89 103 84 123
113 105 156 -16 39 -17 124 -1 143 7 10 24 17 37 17 14 0 31 11 44 30 21 30
55 40 62 19z"/>
<path d="M1896 1465 c-3 -8 -1 -15 4 -15 6 0 10 7 10 15 0 8 -2 15 -4 15 -2 0
-6 -7 -10 -15z"/>
</g>
</svg>
