<?xml version="1.0" standalone="no"?>
<!DOCTYPE svg PUBLIC "-//W3C//DTD SVG 20010904//EN"
 "http://www.w3.org/TR/2001/REC-SVG-20010904/DTD/svg10.dtd">
<svg version="1.0" xmlns="http://www.w3.org/2000/svg"
 width="273.000000pt" height="273.000000pt" viewBox="0 0 273.000000 273.000000"
 preserveAspectRatio="xMidYMid meet">

<g transform="translate(0.000000,273.000000) scale(0.100000,-0.100000)"
fill="#191919" stroke="none">
<path d="M707 2022 c-356 -356 -647 -654 -647 -661 0 -15 1291 -1311 1306
-1311 13 0 1309 1298 1309 1310 0 13 -1297 1310 -1310 1310 -5 0 -301 -292
-658 -648z m632 -51 c52 -27 68 -48 53 -69 -6 -10 -24 -38 -39 -64 -15 -26
-34 -50 -42 -53 -16 -6 -121 40 -121 54 0 9 48 114 63 139 12 17 42 15 86 -7z
m207 -83 c30 -20 50 -42 52 -55 3 -21 -6 -36 -97 -160 l-34 -46 -11 34 c-7 21
-25 43 -48 58 -21 13 -38 30 -38 38 0 7 11 31 25 53 14 22 25 42 25 46 0 17
44 64 60 64 10 0 40 -15 66 -32z m-281 -150 c96 -48 145 -77 143 -87 -6 -30
-55 -53 -122 -58 -56 -5 -70 -10 -86 -31 -11 -13 -20 -30 -20 -36 0 -6 43 -49
96 -95 96 -84 121 -120 154 -216 17 -51 42 -67 48 -30 1 11 10 48 19 83 18 72
32 77 91 37 20 -14 44 -25 54 -25 10 0 47 29 83 65 75 74 101 83 91 33 -8 -39
-35 -81 -128 -200 -63 -78 -71 -95 -74 -138 -4 -46 -34 -115 -193 -447 -16
-35 -32 -41 -49 -20 -5 6 -56 101 -112 211 l-103 198 7 68 6 67 -57 89 c-32
49 -86 132 -120 184 -35 52 -63 104 -63 115 0 34 166 304 188 305 1 0 67 -32
147 -72z m429 -9 c28 -25 46 -49 46 -62 0 -26 -174 -207 -198 -207 -21 0 -72
49 -72 69 0 24 153 241 169 241 5 0 29 -18 55 -41z m115 -164 c17 -20 31 -37
31 -40 0 -19 -25 -47 -103 -112 -88 -74 -91 -76 -116 -62 -51 29 -41 59 51
158 46 49 88 90 94 90 7 1 26 -15 43 -34z"/>
</g>
</svg>
