<?xml version="1.0" standalone="no"?>
<!DOCTYPE svg PUBLIC "-//W3C//DTD SVG 20010904//EN"
 "http://www.w3.org/TR/2001/REC-SVG-20010904/DTD/svg10.dtd">
<svg version="1.0" xmlns="http://www.w3.org/2000/svg"
 width="275.000000pt" height="276.000000pt" viewBox="0 0 275.000000 276.000000"
 preserveAspectRatio="xMidYMid meet">

<g transform="translate(0.000000,276.000000) scale(0.100000,-0.100000)"
fill="#191919" stroke="none">
<path d="M717 2042 c-356 -356 -647 -654 -647 -662 0 -16 1299 -1320 1315
-1320 16 0 1315 1304 1315 1320 0 23 -1294 1310 -1316 1310 -12 0 -268 -249
-667 -648z m785 -273 c106 -22 247 -120 304 -211 13 -21 29 -38 35 -38 21 0
150 140 170 185 11 25 24 45 29 45 5 0 14 -19 21 -42 17 -65 5 -160 -32 -234
-17 -35 -29 -69 -27 -76 3 -7 24 6 51 32 26 23 50 40 54 37 9 -10 -24 -91 -56
-134 -15 -21 -48 -54 -74 -73 -56 -42 -63 -64 -14 -48 17 6 36 15 42 19 13 12
45 11 45 -1 0 -26 -79 -93 -149 -127 -68 -33 -73 -37 -53 -46 31 -14 23 -30
-22 -45 -21 -6 -63 -35 -94 -63 -32 -28 -91 -67 -132 -87 -74 -37 -76 -37
-200 -37 -123 0 -126 0 -202 37 -43 20 -100 58 -129 85 -29 27 -71 55 -97 64
-51 17 -64 34 -33 44 32 10 25 20 -28 39 -85 30 -187 124 -163 148 6 6 20 4
40 -6 63 -33 64 -16 2 45 -35 34 -72 83 -86 112 -42 92 -28 117 31 57 22 -22
43 -40 47 -40 5 0 -3 22 -17 50 -39 77 -55 158 -43 221 18 101 36 109 69 32
20 -47 143 -183 165 -183 7 0 22 15 34 34 29 48 116 125 177 158 98 54 221 71
335 47z"/>
<path d="M1623 1608 c63 -84 86 -172 66 -254 -31 -134 -159 -233 -301 -234
-55 0 -146 38 -193 81 -65 60 -90 119 -90 214 0 82 10 114 55 183 12 17 17 32
12 32 -16 0 -72 -59 -103 -108 -15 -24 -36 -77 -45 -118 -15 -62 -16 -83 -6
-136 15 -83 54 -158 109 -213 147 -148 381 -151 535 -7 59 55 90 108 114 191
15 56 16 73 5 135 -16 95 -48 161 -105 219 -56 55 -91 65 -53 15z"/>
<path d="M1365 1578 c-2 -7 -6 -35 -7 -63 l-3 -50 -60 -5 -60 -5 0 -35 0 -35
52 -3 c28 -2 56 -9 62 -15 5 -7 11 -35 13 -62 3 -50 3 -50 38 -50 l35 0 3 57
c3 64 5 65 87 70 39 3 40 4 40 38 l0 35 -60 5 -60 5 -3 50 c-2 27 -8 55 -14
62 -13 17 -57 17 -63 1z"/>
</g>
</svg>
